<?xml version="1.0" standalone="no"?>
<!DOCTYPE svg PUBLIC "-//W3C//DTD SVG 20010904//EN"
 "http://www.w3.org/TR/2001/REC-SVG-20010904/DTD/svg10.dtd">
<svg version="1.0" xmlns="http://www.w3.org/2000/svg"
 width="2481.000000pt" height="2481.000000pt" viewBox="0 0 2481.000000 2481.000000"
 preserveAspectRatio="xMidYMid meet">

<g transform="translate(0.000000,2481.000000) scale(0.100000,-0.100000)"
fill="#000000" stroke="none">
<path d="M14266 19719 c-12 -35 -35 -172 -31 -179 7 -11 156 -33 165 -23 4 4
13 37 19 73 7 36 15 74 17 86 5 19 -2 22 -68 34 -40 7 -79 15 -85 17 -7 3 -15
-1 -17 -8z"/>
<path d="M13020 19599 c-130 -22 -239 -106 -281 -218 -31 -82 -24 -196 16
-270 53 -96 114 -134 362 -222 90 -31 183 -69 207 -83 110 -64 125 -200 32
-292 -49 -49 -119 -74 -211 -74 -188 0 -334 107 -352 259 l-6 51 -75 0 -75 0
6 -68 c8 -100 39 -173 105 -243 92 -100 217 -148 384 -149 150 0 263 44 343
132 62 69 88 142 89 248 1 74 -3 93 -27 142 -53 108 -139 163 -383 243 -233
77 -284 117 -284 220 0 90 61 153 168 176 108 22 241 -8 305 -69 37 -35 54
-69 68 -132 l11 -50 75 0 75 0 -7 57 c-21 168 -123 284 -286 327 -76 19 -193
26 -259 15z"/>
<path d="M11715 19545 c-11 -2 -140 -19 -287 -36 -225 -27 -268 -35 -268 -48
0 -9 34 -292 77 -630 l77 -613 75 6 c42 4 76 8 78 9 1 1 -14 125 -34 276 -19
150 -31 277 -26 281 4 4 62 13 128 20 151 16 183 8 258 -60 30 -28 122 -136
203 -241 l148 -191 73 7 c138 13 140 -5 -23 205 -153 197 -230 276 -301 311
l-44 21 56 23 c31 13 74 35 95 49 115 76 158 232 110 390 -25 80 -106 174
-173 201 -40 16 -177 28 -222 20z m172 -177 c62 -41 95 -134 79 -221 -10 -51
-76 -122 -134 -141 -50 -18 -440 -72 -449 -63 -5 5 -53 364 -53 398 0 12 31
19 163 36 89 12 205 21 258 20 85 -2 100 -5 136 -29z"/>
<path d="M14220 19447 c0 -4 -239 -1200 -245 -1223 -4 -19 2 -23 71 -36 54
-11 77 -12 79 -4 13 37 245 1229 241 1233 -8 8 -146 37 -146 30z"/>
<path d="M10105 19205 c-265 -84 -390 -127 -389 -137 2 -20 375 -1182 383
-1190 6 -7 813 241 826 253 4 5 -32 127 -41 137 -1 2 -154 -44 -340 -102 -185
-59 -340 -103 -344 -99 -14 17 -130 397 -123 403 5 4 141 48 303 99 162 50
296 94 299 97 7 7 -39 145 -47 140 -21 -12 -595 -187 -604 -184 -11 4 -117
318 -118 349 0 12 76 39 315 114 173 54 319 101 324 105 13 8 -27 140 -43 139
-6 0 -186 -56 -401 -124z"/>
<path d="M14886 19243 c-10 -32 -21 -63 -23 -69 -3 -8 61 -33 169 -69 95 -32
177 -61 181 -65 5 -4 -70 -241 -167 -525 -97 -285 -176 -523 -176 -529 0 -14
131 -59 141 -48 3 4 84 238 179 519 96 282 177 517 180 523 4 6 77 -14 185
-50 98 -33 180 -59 181 -57 1 1 14 33 27 70 17 47 21 70 14 73 -58 21 -854
284 -863 284 -5 0 -18 -26 -28 -57z"/>
<path d="M9128 18844 c-38 -19 -68 -36 -68 -38 0 -16 164 -1025 176 -1079 8
-37 14 -73 14 -79 0 -6 -33 23 -72 65 -40 41 -197 193 -348 338 -151 144 -310
296 -352 338 l-78 75 -76 -37 c-42 -21 -73 -42 -68 -46 5 -5 231 -212 502
-460 l494 -451 69 36 c38 20 69 40 69 45 0 15 -190 1322 -193 1325 -1 1 -32
-13 -69 -32z"/>
<path d="M15992 18224 c-166 -307 -301 -558 -300 -559 2 -1 174 -93 383 -204
354 -189 380 -201 393 -184 25 33 62 112 54 116 -4 3 -144 78 -312 167 -168
89 -306 164 -308 165 -6 6 200 375 209 375 6 0 132 -65 281 -145 150 -80 277
-144 282 -141 6 2 25 30 43 63 l32 59 -268 142 c-147 78 -275 148 -284 155
-15 11 -7 29 71 174 49 90 91 165 94 168 3 3 141 -67 307 -156 166 -89 303
-160 305 -158 20 26 66 121 62 128 -7 10 -720 391 -732 391 -5 0 -145 -250
-312 -556z"/>
<path d="M7610 18289 c-91 -66 -89 -58 -35 -136 26 -37 51 -72 56 -77 10 -11
150 86 145 100 -4 11 -107 155 -110 153 0 0 -26 -19 -56 -40z"/>
<path d="M7779 18062 c-19 -15 -46 -34 -59 -43 l-23 -15 363 -505 c200 -277
368 -510 375 -517 10 -11 23 -6 71 28 32 23 59 44 59 48 0 11 -737 1032 -744
1031 -3 0 -22 -12 -42 -27z"/>
<path d="M12290 18000 c-1339 -64 -2641 -530 -3705 -1330 -1297 -974 -2199
-2368 -2551 -3943 -67 -303 -116 -635 -146 -992 -16 -195 -15 -786 1 -985 57
-707 209 -1373 456 -1995 255 -645 646 -1306 1073 -1817 78 -93 79 -93 227
-44 613 205 1712 950 3073 2083 l292 243 0 2549 c0 1691 3 2566 10 2602 79
418 630 504 833 130 59 -108 57 6 57 -2320 0 -2106 0 -2133 19 -2120 11 8 76
58 145 112 l126 99 0 2043 c0 1977 1 2045 19 2104 51 164 190 284 364 313 216
36 446 -123 496 -343 7 -29 11 -696 11 -1932 0 -1789 1 -1888 18 -1893 66 -22
136 -53 190 -85 l62 -38 0 1953 c0 2109 -3 2003 51 2108 30 59 120 150 180
183 247 134 548 16 637 -251 20 -58 21 -95 28 -2951 4 -1842 11 -2893 17
-2893 22 0 150 95 201 151 l56 60 0 2772 c0 3038 -4 2832 57 2937 195 333 667
296 811 -62 16 -40 17 -186 22 -2093 l5 -2050 169 275 c245 400 420 660 531
788 210 244 461 426 660 477 78 20 252 20 330 0 281 -73 456 -292 521 -651 22
-122 25 -406 6 -574 -26 -227 23 -406 130 -477 37 -25 50 -28 122 -27 103 1
131 12 436 179 415 227 679 388 942 577 l56 40 7 147 c8 156 1 470 -16 691
-138 1834 -994 3505 -2404 4690 -1286 1081 -2941 1639 -4625 1560z m3340
-1535 l0 -295 -2405 0 -2405 0 0 295 0 295 2405 0 2405 0 0 -295z m0 -530 c0
-3 -47 -217 -105 -475 -58 -257 -105 -471 -105 -474 0 -3 -988 -6 -2195 -6
-1207 0 -2195 4 -2195 8 0 4 -43 214 -95 467 -52 252 -95 465 -95 472 0 11
422 13 2395 13 1317 0 2395 -2 2395 -5z"/>
<path d="M17534 17896 c-152 -49 -252 -210 -224 -358 15 -76 48 -139 153 -284
150 -208 171 -255 147 -329 -16 -47 -66 -104 -107 -121 -58 -25 -142 -18 -211
16 -74 38 -158 119 -192 185 -35 69 -36 190 -2 253 12 23 22 46 22 51 0 4 -25
25 -56 45 -66 44 -68 43 -115 -52 -32 -64 -34 -72 -34 -177 0 -105 2 -113 33
-177 38 -75 129 -171 219 -230 174 -115 383 -100 513 38 90 95 119 204 85 320
-22 77 -49 123 -160 274 -146 197 -162 238 -125 315 65 133 225 131 374 -6 98
-89 123 -193 71 -294 -13 -27 -21 -52 -16 -55 77 -52 112 -70 121 -65 17 11
56 96 70 153 28 122 -23 255 -142 367 -99 94 -192 138 -302 142 -49 2 -97 -2
-122 -11z"/>
<path d="M7112 17552 l-52 -47 345 -359 c190 -197 344 -360 343 -362 -2 -1
-256 65 -566 148 l-563 149 -60 -52 -60 -52 63 -66 c296 -312 822 -851 828
-849 12 4 100 88 100 94 0 3 -153 164 -339 357 -187 194 -336 353 -331 355 4
2 254 -62 555 -142 300 -81 550 -146 556 -146 13 0 119 91 119 102 0 8 -868
911 -879 915 -3 1 -30 -19 -59 -45z"/>
<path d="M18831 17206 l-64 -64 31 -39 c16 -21 43 -50 59 -65 l28 -27 71 69
72 68 -62 61 c-34 34 -64 61 -67 61 -2 0 -33 -29 -68 -64z"/>
<path d="M18310 16694 c-217 -206 -425 -405 -463 -442 l-67 -67 53 -53 54 -53
434 411 c239 227 447 425 464 441 l30 29 -55 55 -55 54 -395 -375z"/>
<path d="M5605 16409 c-20 -28 -38 -56 -40 -62 -4 -10 103 -92 135 -105 4 -1
25 24 48 57 l42 59 -70 51 c-38 28 -72 51 -74 51 -2 0 -21 -23 -41 -51z"/>
<path d="M6011 16403 c-39 -55 -40 -59 -23 -73 10 -8 162 -116 337 -240 334
-235 416 -305 455 -384 43 -91 12 -206 -88 -317 -56 -63 -118 -92 -193 -92
-100 1 -120 13 -599 352 l-285 201 -17 -22 c-62 -81 -72 -99 -57 -113 40 -38
664 -470 729 -504 240 -125 418 -87 577 124 78 103 107 180 107 285 0 67 -4
95 -22 134 -33 73 -93 146 -175 213 -84 69 -683 493 -697 493 -4 0 -27 -26
-49 -57z"/>
<path d="M5431 16166 c-23 -30 -41 -59 -41 -63 1 -8 113 -91 134 -98 6 -3 30
22 53 55 l42 59 -62 43 c-34 24 -67 47 -74 51 -8 5 -27 -12 -52 -47z"/>
<path d="M19382 15632 l-63 -37 23 -19 c33 -26 165 -91 227 -112 29 -9 49 -20
44 -24 -4 -4 -192 -118 -418 -255 -225 -136 -413 -250 -417 -253 -6 -6 47
-100 66 -119 2 -3 252 145 555 327 l550 333 -23 36 c-23 36 -24 36 -107 42
-117 9 -233 42 -328 95 -24 13 -44 24 -45 24 0 0 -29 -17 -64 -38z"/>
<path d="M20055 14693 c-178 -24 -354 -144 -403 -276 -70 -185 20 -363 213
-423 l40 -12 -39 -17 c-114 -49 -290 -69 -379 -44 -42 11 -111 68 -131 108
-47 91 -15 186 83 253 l23 16 -32 61 -33 61 -30 -18 c-51 -29 -117 -100 -140
-150 -16 -36 -22 -66 -22 -127 0 -70 4 -88 33 -147 75 -154 234 -227 439 -201
112 15 231 50 369 109 214 91 332 182 390 300 26 53 29 69 29 159 0 90 -3 105
-27 152 -16 29 -41 67 -58 86 -39 45 -131 93 -204 106 -60 11 -66 11 -121 4z
m131 -158 c27 -8 68 -30 91 -50 158 -135 33 -367 -222 -414 -229 -43 -369 196
-213 365 58 63 166 110 259 113 19 1 58 -6 85 -14z"/>
<path d="M4831 14385 c-12 -31 -21 -62 -21 -69 0 -8 168 -72 466 -177 340
-118 462 -165 448 -171 -10 -4 -268 -60 -573 -123 -304 -63 -555 -116 -556
-117 -1 -2 -13 -35 -26 -74 l-25 -71 595 -208 c328 -115 601 -210 607 -212 18
-6 60 127 44 137 -7 4 -217 79 -466 166 -250 87 -454 161 -454 164 0 3 249 56
553 119 303 63 561 117 572 121 21 8 71 139 57 151 -7 6 -1185 419 -1196 419
-2 0 -14 -25 -25 -55z"/>
<path d="M20400 13529 c-30 -5 -86 -20 -125 -34 -216 -78 -320 -288 -231 -469
31 -62 74 -106 144 -144 l52 -29 -52 -11 c-138 -30 -288 -23 -366 17 -107 55
-156 188 -99 272 21 32 92 92 118 101 9 3 8 16 -5 53 -27 82 -28 83 -81 57
-67 -33 -139 -104 -165 -164 -32 -74 -26 -199 14 -278 101 -202 333 -260 706
-175 129 29 267 77 338 117 325 184 270 620 -88 688 -60 11 -83 11 -160 -1z
m164 -153 c182 -55 230 -223 101 -352 -70 -71 -141 -97 -260 -98 -81 -1 -95 2
-138 27 -111 65 -140 199 -67 308 67 101 235 154 364 115z"/>
<path d="M4111 12968 c-7 -35 -15 -73 -17 -84 -5 -20 2 -23 86 -39 50 -10 94
-14 98 -11 4 4 14 43 23 86 l16 78 -81 16 c-117 23 -112 25 -125 -46z"/>
<path d="M4386 12898 c-10 -42 -12 -74 -7 -77 18 -11 1241 -254 1247 -248 7 6
36 139 32 142 -2 1 -277 57 -613 124 -335 67 -617 125 -626 127 -13 4 -20 -10
-33 -68z"/>
<path d="M20670 12253 l0 -70 58 -6 c133 -12 214 -95 215 -222 1 -76 -29 -136
-91 -179 -55 -39 -152 -48 -231 -21 -65 21 -175 94 -275 181 -167 147 -260
222 -314 255 -73 44 -175 78 -235 79 l-47 0 5 -37 c5 -38 65 -695 65 -715 0
-7 23 -9 72 -4 39 3 74 8 76 10 4 4 -33 445 -43 519 -4 28 -2 37 9 37 20 0
126 -81 260 -199 149 -131 256 -209 346 -251 70 -33 82 -35 175 -35 87 0 107
3 157 27 67 31 142 98 168 148 65 127 37 333 -59 443 -50 56 -146 99 -236 105
l-75 5 0 -70z"/>
<path d="M4510 12156 c-199 -44 -309 -217 -298 -467 4 -80 10 -107 35 -160 60
-129 152 -189 296 -197 83 -4 91 -3 152 27 107 53 152 121 235 356 58 165 84
218 130 258 72 66 178 59 254 -16 52 -52 71 -113 70 -217 0 -86 -21 -157 -65
-223 -46 -70 -97 -98 -221 -122 -27 -5 -28 -7 -28 -77 l0 -71 73 6 c101 7 176
38 242 99 96 87 143 194 152 343 15 255 -103 428 -319 465 -161 28 -304 -49
-377 -203 -16 -34 -50 -121 -74 -193 -87 -254 -121 -293 -247 -285 -126 9
-194 177 -145 358 23 86 78 144 156 167 29 9 61 16 71 16 16 0 18 9 18 75 l0
75 -27 -1 c-16 0 -53 -6 -83 -13z"/>
<path d="M5300 10814 c-183 -139 -288 -236 -321 -300 l-23 -42 -38 78 c-78
161 -208 224 -387 186 -86 -18 -144 -49 -194 -105 -85 -95 -90 -154 -42 -546
20 -165 37 -300 38 -301 2 -2 1270 149 1274 151 2 1 -18 149 -20 151 -1 1
-128 -14 -281 -32 -154 -19 -280 -33 -282 -32 -1 2 -7 44 -13 93 -29 241 -22
252 320 510 133 101 179 141 175 153 -3 9 -8 50 -12 90 -4 43 -11 72 -18 71
-6 0 -85 -57 -176 -125z m-616 -236 c58 -18 112 -76 130 -140 12 -42 67 -428
62 -434 0 -1 -82 -11 -181 -23 -99 -12 -194 -23 -211 -26 l-30 -5 -22 187
c-12 104 -22 213 -22 243 1 152 126 242 274 198z"/>
<path d="M16780 10875 c-153 -43 -323 -159 -500 -341 -189 -195 -333 -400
-528 -749 -578 -1039 -1157 -1787 -1627 -2102 -73 -49 -202 -114 -271 -137
-120 -39 -273 -36 -368 7 -141 66 -235 243 -268 504 -13 110 -5 356 19 523 25
181 25 615 -1 755 -38 209 -95 344 -184 437 -67 71 -133 104 -233 119 -100 15
-159 2 -291 -62 -172 -84 -349 -209 -596 -418 -203 -172 -302 -267 -737 -705
-225 -227 -480 -477 -565 -557 -1005 -935 -1853 -1534 -2530 -1789 -63 -24
-117 -45 -119 -47 -14 -11 242 -242 462 -416 152 -122 402 -307 413 -307 11 0
254 184 475 361 336 269 639 526 949 808 221 201 721 710 874 891 82 96 239
265 350 375 260 260 429 387 587 442 63 22 84 24 144 19 86 -8 135 -39 176
-111 52 -92 64 -160 63 -365 0 -253 -32 -454 -135 -859 -61 -237 -87 -385 -98
-555 -22 -336 43 -602 187 -757 76 -83 155 -133 269 -169 204 -65 451 -26 743
118 690 341 1479 1242 2295 2619 187 317 398 538 585 614 81 32 187 31 262 -4
114 -51 202 -173 233 -322 18 -84 19 -284 4 -406 -20 -153 14 -295 90 -382 65
-73 215 -118 323 -96 71 14 217 87 303 151 96 71 325 301 424 426 45 57 116
154 158 215 146 214 339 378 524 445 66 23 90 27 214 28 l139 2 19 54 c91 265
247 933 235 1008 -3 18 -19 11 -163 -66 -230 -124 -305 -171 -498 -312 -931
-681 -946 -691 -1057 -711 -124 -22 -192 15 -246 134 -24 52 -29 76 -32 175
-3 80 1 142 13 205 34 188 46 296 51 485 14 444 -76 717 -264 806 -71 33 -190
42 -272 19z"/>
<path d="M5613 9531 c-29 -9 -55 -19 -58 -22 -3 -4 42 -156 100 -339 58 -183
103 -335 101 -337 -2 -3 -95 -33 -205 -68 -179 -56 -202 -61 -210 -46 -4 9
-47 142 -96 296 -48 154 -91 284 -95 289 -9 9 -140 -31 -140 -42 0 -4 42 -140
94 -302 52 -162 91 -298 87 -302 -6 -7 -363 -120 -366 -115 -1 1 -46 143 -101
315 -54 172 -101 317 -105 323 -4 8 -28 4 -76 -11 l-69 -23 124 -391 c68 -215
127 -394 130 -398 4 -4 279 78 612 181 437 136 605 192 605 202 0 8 -56 194
-125 412 -93 295 -129 396 -140 396 -8 -1 -38 -9 -67 -18z"/>
<path d="M5540 8029 c-305 -166 -556 -302 -558 -303 -7 -8 98 -181 110 -179 7
1 257 50 554 108 298 58 546 105 550 105 5 0 -172 -181 -393 -402 l-402 -403
57 -102 56 -102 61 34 c33 18 283 153 555 300 272 147 498 270 503 274 5 5
-39 104 -59 129 -1 2 -212 -110 -469 -248 -256 -139 -468 -250 -470 -249 -1 2
172 182 385 399 l389 395 -33 60 c-19 33 -39 59 -47 58 -8 -1 -252 -47 -543
-103 -291 -55 -530 -100 -531 -98 -2 2 206 115 461 253 l464 249 -34 60 c-19
33 -38 61 -43 63 -4 1 -258 -133 -563 -298z"/>
</g>
</svg>
